<mxfile host="app.diagrams.net" agent="Mozilla/5.0 (Windows NT 10.0; Win64; x64) AppleWebKit/537.36 (KHTML, like Gecko) Chrome/138.0.0.0 Safari/537.36 Edg/138.0.0.0" version="28.0.6">
  <diagram id="C5RBs43oDa-KdzZeNtuy" name="Page-1">
    <mxGraphModel dx="2214" dy="773" grid="1" gridSize="10" guides="1" tooltips="1" connect="1" arrows="1" fold="1" page="1" pageScale="1" pageWidth="827" pageHeight="1169" math="0" shadow="0">
      <root>
        <mxCell id="WIyWlLk6GJQsqaUBKTNV-0" />
        <mxCell id="WIyWlLk6GJQsqaUBKTNV-1" parent="WIyWlLk6GJQsqaUBKTNV-0" />
        <mxCell id="VnlslrCMdlGvhcKEJv3W-1" value="延迟消息发送" style="swimlane;childLayout=stackLayout;resizeParent=1;resizeParentMax=0;startSize=20;html=1;" vertex="1" parent="WIyWlLk6GJQsqaUBKTNV-1">
          <mxGeometry x="-773" y="40" width="1353" height="1390" as="geometry" />
        </mxCell>
        <mxCell id="VnlslrCMdlGvhcKEJv3W-2" value="生产者" style="swimlane;startSize=20;html=1;" vertex="1" parent="VnlslrCMdlGvhcKEJv3W-1">
          <mxGeometry y="20" width="210" height="1370" as="geometry" />
        </mxCell>
        <mxCell id="VnlslrCMdlGvhcKEJv3W-5" value="发送消息" style="rounded=0;whiteSpace=wrap;html=1;" vertex="1" parent="VnlslrCMdlGvhcKEJv3W-2">
          <mxGeometry x="25" y="50" width="120" height="50" as="geometry" />
        </mxCell>
        <mxCell id="VnlslrCMdlGvhcKEJv3W-3" value="Broker" style="swimlane;startSize=20;html=1;" vertex="1" parent="VnlslrCMdlGvhcKEJv3W-1">
          <mxGeometry x="210" y="20" width="630" height="1370" as="geometry" />
        </mxCell>
        <mxCell id="VnlslrCMdlGvhcKEJv3W-10" value="" style="edgeStyle=orthogonalEdgeStyle;rounded=0;orthogonalLoop=1;jettySize=auto;html=1;entryX=0.5;entryY=0;entryDx=0;entryDy=0;" edge="1" parent="VnlslrCMdlGvhcKEJv3W-3" source="VnlslrCMdlGvhcKEJv3W-8" target="VnlslrCMdlGvhcKEJv3W-15">
          <mxGeometry relative="1" as="geometry">
            <mxPoint x="165" y="240" as="targetPoint" />
          </mxGeometry>
        </mxCell>
        <mxCell id="VnlslrCMdlGvhcKEJv3W-8" value="匹配消息处理器" style="rounded=0;whiteSpace=wrap;html=1;" vertex="1" parent="VnlslrCMdlGvhcKEJv3W-3">
          <mxGeometry x="105" y="110" width="120" height="50" as="geometry" />
        </mxCell>
        <mxCell id="VnlslrCMdlGvhcKEJv3W-13" value="&lt;div style=&quot;text-align: center;&quot;&gt;SendMessageProcessor&lt;/div&gt;" style="shape=note;whiteSpace=wrap;html=1;backgroundOutline=1;darkOpacity=0.05;rounded=0;strokeColor=#82b366;align=left;verticalAlign=middle;fontFamily=Helvetica;fontSize=12;fillColor=#d5e8d4;size=16;" vertex="1" parent="VnlslrCMdlGvhcKEJv3W-3">
          <mxGeometry x="67.5" y="170" width="195" height="50" as="geometry" />
        </mxCell>
        <mxCell id="VnlslrCMdlGvhcKEJv3W-14" value="" style="group;fillColor=#dae8fc;strokeColor=#6c8ebf;" vertex="1" connectable="0" parent="VnlslrCMdlGvhcKEJv3W-3">
          <mxGeometry x="50" y="260" width="230" height="110" as="geometry" />
        </mxCell>
        <mxCell id="VnlslrCMdlGvhcKEJv3W-15" value="" style="whiteSpace=wrap;html=1;rounded=0;align=left;fillColor=#dae8fc;strokeColor=#6c8ebf;" vertex="1" parent="VnlslrCMdlGvhcKEJv3W-14">
          <mxGeometry width="230" height="110" as="geometry" />
        </mxCell>
        <mxCell id="VnlslrCMdlGvhcKEJv3W-16" value="遍历钩子函数" style="text;html=1;align=center;verticalAlign=middle;whiteSpace=wrap;rounded=0;fontFamily=Helvetica;fontSize=12;fontColor=default;" vertex="1" parent="VnlslrCMdlGvhcKEJv3W-14">
          <mxGeometry width="90" height="15.714285714285715" as="geometry" />
        </mxCell>
        <mxCell id="VnlslrCMdlGvhcKEJv3W-17" value="钩子函数处理" style="rounded=0;whiteSpace=wrap;html=1;" vertex="1" parent="VnlslrCMdlGvhcKEJv3W-14">
          <mxGeometry x="55" y="33.85" width="120" height="46.15" as="geometry" />
        </mxCell>
        <mxCell id="VnlslrCMdlGvhcKEJv3W-21" value="" style="edgeStyle=orthogonalEdgeStyle;rounded=0;orthogonalLoop=1;jettySize=auto;html=1;" edge="1" parent="VnlslrCMdlGvhcKEJv3W-3" source="VnlslrCMdlGvhcKEJv3W-19" target="VnlslrCMdlGvhcKEJv3W-20">
          <mxGeometry relative="1" as="geometry" />
        </mxCell>
        <mxCell id="VnlslrCMdlGvhcKEJv3W-19" value="延迟钩子函数" style="ellipse;whiteSpace=wrap;html=1;rounded=0;strokeColor=default;align=center;verticalAlign=middle;fontFamily=Helvetica;fontSize=12;fontColor=default;fillColor=default;" vertex="1" parent="VnlslrCMdlGvhcKEJv3W-3">
          <mxGeometry x="353" y="130" width="120" height="50" as="geometry" />
        </mxCell>
        <mxCell id="VnlslrCMdlGvhcKEJv3W-23" style="edgeStyle=orthogonalEdgeStyle;rounded=0;orthogonalLoop=1;jettySize=auto;html=1;exitX=0.5;exitY=1;exitDx=0;exitDy=0;entryX=0.5;entryY=0;entryDx=0;entryDy=0;" edge="1" parent="VnlslrCMdlGvhcKEJv3W-3" source="VnlslrCMdlGvhcKEJv3W-20" target="VnlslrCMdlGvhcKEJv3W-25">
          <mxGeometry relative="1" as="geometry">
            <mxPoint x="413" y="368" as="targetPoint" />
          </mxGeometry>
        </mxCell>
        <mxCell id="VnlslrCMdlGvhcKEJv3W-24" value="是否非事务消息&lt;div&gt;或事务已提交消息&lt;/div&gt;" style="edgeLabel;html=1;align=center;verticalAlign=middle;resizable=0;points=[];" vertex="1" connectable="0" parent="VnlslrCMdlGvhcKEJv3W-23">
          <mxGeometry x="-0.3052" y="1" relative="1" as="geometry">
            <mxPoint as="offset" />
          </mxGeometry>
        </mxCell>
        <mxCell id="VnlslrCMdlGvhcKEJv3W-59" style="edgeStyle=orthogonalEdgeStyle;rounded=0;orthogonalLoop=1;jettySize=auto;html=1;exitX=1;exitY=0.5;exitDx=0;exitDy=0;entryX=1;entryY=0.5;entryDx=0;entryDy=0;" edge="1" parent="VnlslrCMdlGvhcKEJv3W-3" source="VnlslrCMdlGvhcKEJv3W-20" target="VnlslrCMdlGvhcKEJv3W-31">
          <mxGeometry relative="1" as="geometry">
            <Array as="points">
              <mxPoint x="553" y="288" />
              <mxPoint x="553" y="760" />
            </Array>
          </mxGeometry>
        </mxCell>
        <mxCell id="VnlslrCMdlGvhcKEJv3W-60" value="非……" style="edgeLabel;html=1;align=center;verticalAlign=middle;resizable=0;points=[];" vertex="1" connectable="0" parent="VnlslrCMdlGvhcKEJv3W-59">
          <mxGeometry x="-0.844" y="-2" relative="1" as="geometry">
            <mxPoint as="offset" />
          </mxGeometry>
        </mxCell>
        <mxCell id="VnlslrCMdlGvhcKEJv3W-20" value="" style="rhombus;whiteSpace=wrap;html=1;rounded=0;" vertex="1" parent="VnlslrCMdlGvhcKEJv3W-3">
          <mxGeometry x="393" y="268" width="40" height="40" as="geometry" />
        </mxCell>
        <mxCell id="VnlslrCMdlGvhcKEJv3W-27" style="edgeStyle=orthogonalEdgeStyle;rounded=0;orthogonalLoop=1;jettySize=auto;html=1;exitX=0.5;exitY=1;exitDx=0;exitDy=0;entryX=0.5;entryY=0;entryDx=0;entryDy=0;" edge="1" parent="VnlslrCMdlGvhcKEJv3W-3" source="VnlslrCMdlGvhcKEJv3W-25" target="VnlslrCMdlGvhcKEJv3W-26">
          <mxGeometry relative="1" as="geometry" />
        </mxCell>
        <mxCell id="VnlslrCMdlGvhcKEJv3W-28" value="是否时间轮消息&lt;div&gt;（5.0版本后）&lt;/div&gt;" style="edgeLabel;html=1;align=center;verticalAlign=middle;resizable=0;points=[];" vertex="1" connectable="0" parent="VnlslrCMdlGvhcKEJv3W-27">
          <mxGeometry x="-0.2368" relative="1" as="geometry">
            <mxPoint as="offset" />
          </mxGeometry>
        </mxCell>
        <mxCell id="VnlslrCMdlGvhcKEJv3W-35" style="edgeStyle=orthogonalEdgeStyle;rounded=0;orthogonalLoop=1;jettySize=auto;html=1;exitX=1;exitY=0.5;exitDx=0;exitDy=0;entryX=1;entryY=0.5;entryDx=0;entryDy=0;" edge="1" parent="VnlslrCMdlGvhcKEJv3W-3" source="VnlslrCMdlGvhcKEJv3W-25" target="VnlslrCMdlGvhcKEJv3W-29">
          <mxGeometry relative="1" as="geometry" />
        </mxCell>
        <mxCell id="VnlslrCMdlGvhcKEJv3W-36" value="普通&lt;div&gt;延迟消息&lt;/div&gt;" style="edgeLabel;html=1;align=center;verticalAlign=middle;resizable=0;points=[];" vertex="1" connectable="0" parent="VnlslrCMdlGvhcKEJv3W-35">
          <mxGeometry x="-0.7912" y="-1" relative="1" as="geometry">
            <mxPoint as="offset" />
          </mxGeometry>
        </mxCell>
        <mxCell id="VnlslrCMdlGvhcKEJv3W-25" value="" style="rhombus;whiteSpace=wrap;html=1;rounded=0;" vertex="1" parent="VnlslrCMdlGvhcKEJv3W-3">
          <mxGeometry x="393" y="373" width="40" height="40" as="geometry" />
        </mxCell>
        <mxCell id="VnlslrCMdlGvhcKEJv3W-30" style="edgeStyle=orthogonalEdgeStyle;rounded=0;orthogonalLoop=1;jettySize=auto;html=1;exitX=0.5;exitY=1;exitDx=0;exitDy=0;entryX=0.5;entryY=0;entryDx=0;entryDy=0;" edge="1" parent="VnlslrCMdlGvhcKEJv3W-3" source="VnlslrCMdlGvhcKEJv3W-26" target="VnlslrCMdlGvhcKEJv3W-29">
          <mxGeometry relative="1" as="geometry" />
        </mxCell>
        <mxCell id="VnlslrCMdlGvhcKEJv3W-26" value="时间轮延迟消息转换" style="rounded=0;whiteSpace=wrap;html=1;" vertex="1" parent="VnlslrCMdlGvhcKEJv3W-3">
          <mxGeometry x="353" y="458" width="120" height="50" as="geometry" />
        </mxCell>
        <mxCell id="VnlslrCMdlGvhcKEJv3W-32" style="edgeStyle=orthogonalEdgeStyle;rounded=0;orthogonalLoop=1;jettySize=auto;html=1;exitX=0.5;exitY=1;exitDx=0;exitDy=0;entryX=0.5;entryY=0;entryDx=0;entryDy=0;" edge="1" parent="VnlslrCMdlGvhcKEJv3W-3" source="VnlslrCMdlGvhcKEJv3W-29" target="VnlslrCMdlGvhcKEJv3W-31">
          <mxGeometry relative="1" as="geometry" />
        </mxCell>
        <mxCell id="VnlslrCMdlGvhcKEJv3W-29" value="普通延迟消息转换" style="rounded=0;whiteSpace=wrap;html=1;" vertex="1" parent="VnlslrCMdlGvhcKEJv3W-3">
          <mxGeometry x="353" y="558" width="120" height="50" as="geometry" />
        </mxCell>
        <mxCell id="VnlslrCMdlGvhcKEJv3W-31" value="" style="ellipse;whiteSpace=wrap;html=1;aspect=fixed;rounded=0;strokeColor=#000000;align=center;verticalAlign=middle;fontFamily=Helvetica;fontSize=12;fontColor=default;fillColor=#000000;" vertex="1" parent="VnlslrCMdlGvhcKEJv3W-3">
          <mxGeometry x="393" y="740" width="40" height="40" as="geometry" />
        </mxCell>
        <mxCell id="VnlslrCMdlGvhcKEJv3W-18" value="&lt;div style=&quot;text-align: center;&quot;&gt;broker启动时会注册名为handleScheduleMessage的钩子函数&lt;/div&gt;" style="shape=note;whiteSpace=wrap;html=1;backgroundOutline=1;darkOpacity=0.05;rounded=0;strokeColor=#82b366;align=left;verticalAlign=middle;fontFamily=Helvetica;fontSize=12;fillColor=#d5e8d4;size=16;" vertex="1" parent="VnlslrCMdlGvhcKEJv3W-3">
          <mxGeometry x="315.5" y="190" width="195" height="50" as="geometry" />
        </mxCell>
        <mxCell id="VnlslrCMdlGvhcKEJv3W-34" value="&lt;div style=&quot;&quot;&gt;转换即：&lt;/div&gt;&lt;div style=&quot;&quot;&gt;&lt;div style=&quot;&quot;&gt;（1）将topic设置为SCHEDULE_TOPIC_XXXX&lt;/div&gt;&lt;div&gt;（2）将queueId设置delayLevel - 1&lt;/div&gt;&lt;div&gt;（3）保留原有的topic和queueId&lt;/div&gt;&lt;/div&gt;" style="shape=note;whiteSpace=wrap;html=1;backgroundOutline=1;darkOpacity=0.05;rounded=0;strokeColor=#82b366;align=left;verticalAlign=middle;fontFamily=Helvetica;fontSize=12;fillColor=#d5e8d4;size=16;" vertex="1" parent="VnlslrCMdlGvhcKEJv3W-3">
          <mxGeometry x="315.5" y="620" width="284.5" height="70" as="geometry" />
        </mxCell>
        <mxCell id="VnlslrCMdlGvhcKEJv3W-37" style="edgeStyle=orthogonalEdgeStyle;rounded=0;orthogonalLoop=1;jettySize=auto;html=1;exitX=1;exitY=0.5;exitDx=0;exitDy=0;entryX=0;entryY=0.5;entryDx=0;entryDy=0;" edge="1" parent="VnlslrCMdlGvhcKEJv3W-3" source="VnlslrCMdlGvhcKEJv3W-17" target="VnlslrCMdlGvhcKEJv3W-19">
          <mxGeometry relative="1" as="geometry" />
        </mxCell>
        <mxCell id="VnlslrCMdlGvhcKEJv3W-39" style="edgeStyle=orthogonalEdgeStyle;rounded=0;orthogonalLoop=1;jettySize=auto;html=1;exitX=0.5;exitY=1;exitDx=0;exitDy=0;entryX=0.5;entryY=0;entryDx=0;entryDy=0;" edge="1" parent="VnlslrCMdlGvhcKEJv3W-3" source="VnlslrCMdlGvhcKEJv3W-15" target="VnlslrCMdlGvhcKEJv3W-42">
          <mxGeometry relative="1" as="geometry">
            <mxPoint x="165" y="440" as="targetPoint" />
          </mxGeometry>
        </mxCell>
        <mxCell id="VnlslrCMdlGvhcKEJv3W-44" value="" style="edgeStyle=orthogonalEdgeStyle;rounded=0;orthogonalLoop=1;jettySize=auto;html=1;" edge="1" parent="VnlslrCMdlGvhcKEJv3W-3" source="VnlslrCMdlGvhcKEJv3W-42" target="VnlslrCMdlGvhcKEJv3W-43">
          <mxGeometry relative="1" as="geometry" />
        </mxCell>
        <mxCell id="VnlslrCMdlGvhcKEJv3W-42" value="设置存储时间为当前时间" style="rounded=0;whiteSpace=wrap;html=1;" vertex="1" parent="VnlslrCMdlGvhcKEJv3W-3">
          <mxGeometry x="105" y="430" width="120" height="46.15" as="geometry" />
        </mxCell>
        <mxCell id="VnlslrCMdlGvhcKEJv3W-46" value="" style="edgeStyle=orthogonalEdgeStyle;rounded=0;orthogonalLoop=1;jettySize=auto;html=1;" edge="1" parent="VnlslrCMdlGvhcKEJv3W-3" source="VnlslrCMdlGvhcKEJv3W-43" target="VnlslrCMdlGvhcKEJv3W-45">
          <mxGeometry relative="1" as="geometry" />
        </mxCell>
        <mxCell id="VnlslrCMdlGvhcKEJv3W-43" value="将加锁的key和编码器保存到threadLocal对象中" style="rounded=0;whiteSpace=wrap;html=1;" vertex="1" parent="VnlslrCMdlGvhcKEJv3W-3">
          <mxGeometry x="105" y="525" width="120" height="46.15" as="geometry" />
        </mxCell>
        <mxCell id="VnlslrCMdlGvhcKEJv3W-48" value="" style="edgeStyle=orthogonalEdgeStyle;rounded=0;orthogonalLoop=1;jettySize=auto;html=1;" edge="1" parent="VnlslrCMdlGvhcKEJv3W-3" source="VnlslrCMdlGvhcKEJv3W-45" target="VnlslrCMdlGvhcKEJv3W-47">
          <mxGeometry relative="1" as="geometry" />
        </mxCell>
        <mxCell id="VnlslrCMdlGvhcKEJv3W-45" value="加锁" style="rounded=0;whiteSpace=wrap;html=1;" vertex="1" parent="VnlslrCMdlGvhcKEJv3W-3">
          <mxGeometry x="105" y="620" width="120" height="46.15" as="geometry" />
        </mxCell>
        <mxCell id="VnlslrCMdlGvhcKEJv3W-51" value="" style="edgeStyle=orthogonalEdgeStyle;rounded=0;orthogonalLoop=1;jettySize=auto;html=1;" edge="1" parent="VnlslrCMdlGvhcKEJv3W-3" source="VnlslrCMdlGvhcKEJv3W-47" target="VnlslrCMdlGvhcKEJv3W-50">
          <mxGeometry relative="1" as="geometry" />
        </mxCell>
        <mxCell id="VnlslrCMdlGvhcKEJv3W-47" value="分配消息偏移量" style="rounded=0;whiteSpace=wrap;html=1;" vertex="1" parent="VnlslrCMdlGvhcKEJv3W-3">
          <mxGeometry x="105" y="800" width="120" height="46.15" as="geometry" />
        </mxCell>
        <mxCell id="VnlslrCMdlGvhcKEJv3W-49" value="&lt;div style=&quot;&quot;&gt;（1）加锁类型：ReentrantLock&lt;/div&gt;&lt;div style=&quot;&quot;&gt;（2）加锁对象：String对象（topic_queueId）&lt;/div&gt;" style="shape=note;whiteSpace=wrap;html=1;backgroundOutline=1;darkOpacity=0.05;rounded=0;strokeColor=#82b366;align=left;verticalAlign=middle;fontFamily=Helvetica;fontSize=12;fillColor=#d5e8d4;size=16;" vertex="1" parent="VnlslrCMdlGvhcKEJv3W-3">
          <mxGeometry x="31" y="690" width="284.5" height="70" as="geometry" />
        </mxCell>
        <mxCell id="VnlslrCMdlGvhcKEJv3W-53" value="" style="edgeStyle=orthogonalEdgeStyle;rounded=0;orthogonalLoop=1;jettySize=auto;html=1;" edge="1" parent="VnlslrCMdlGvhcKEJv3W-3" source="VnlslrCMdlGvhcKEJv3W-50" target="VnlslrCMdlGvhcKEJv3W-52">
          <mxGeometry relative="1" as="geometry" />
        </mxCell>
        <mxCell id="VnlslrCMdlGvhcKEJv3W-50" value="消息编码" style="rounded=0;whiteSpace=wrap;html=1;" vertex="1" parent="VnlslrCMdlGvhcKEJv3W-3">
          <mxGeometry x="105" y="900" width="120" height="46.15" as="geometry" />
        </mxCell>
        <mxCell id="VnlslrCMdlGvhcKEJv3W-55" value="" style="edgeStyle=orthogonalEdgeStyle;rounded=0;orthogonalLoop=1;jettySize=auto;html=1;" edge="1" parent="VnlslrCMdlGvhcKEJv3W-3" source="VnlslrCMdlGvhcKEJv3W-52" target="VnlslrCMdlGvhcKEJv3W-54">
          <mxGeometry relative="1" as="geometry" />
        </mxCell>
        <mxCell id="VnlslrCMdlGvhcKEJv3W-52" value="加锁" style="rounded=0;whiteSpace=wrap;html=1;" vertex="1" parent="VnlslrCMdlGvhcKEJv3W-3">
          <mxGeometry x="105" y="1000.0000000000001" width="120" height="46.15" as="geometry" />
        </mxCell>
        <mxCell id="VnlslrCMdlGvhcKEJv3W-57" style="edgeStyle=orthogonalEdgeStyle;rounded=0;orthogonalLoop=1;jettySize=auto;html=1;exitX=0.5;exitY=1;exitDx=0;exitDy=0;entryX=0.5;entryY=0;entryDx=0;entryDy=0;" edge="1" parent="VnlslrCMdlGvhcKEJv3W-3" source="VnlslrCMdlGvhcKEJv3W-54" target="VnlslrCMdlGvhcKEJv3W-56">
          <mxGeometry relative="1" as="geometry" />
        </mxCell>
        <mxCell id="VnlslrCMdlGvhcKEJv3W-54" value="写入磁盘文件mappedFile" style="rounded=0;whiteSpace=wrap;html=1;" vertex="1" parent="VnlslrCMdlGvhcKEJv3W-3">
          <mxGeometry x="105" y="1160" width="120" height="46.15" as="geometry" />
        </mxCell>
        <mxCell id="VnlslrCMdlGvhcKEJv3W-56" value="" style="ellipse;whiteSpace=wrap;html=1;aspect=fixed;rounded=0;strokeColor=#000000;align=center;verticalAlign=middle;fontFamily=Helvetica;fontSize=12;fontColor=default;fillColor=#000000;" vertex="1" parent="VnlslrCMdlGvhcKEJv3W-3">
          <mxGeometry x="145" y="1270" width="40" height="40" as="geometry" />
        </mxCell>
        <mxCell id="VnlslrCMdlGvhcKEJv3W-58" value="&lt;div style=&quot;&quot;&gt;（1）加锁类型：可选ReentrantLock和自旋锁&lt;/div&gt;&lt;div style=&quot;&quot;&gt;（2）加锁对象：mappedFile对象&lt;/div&gt;" style="shape=note;whiteSpace=wrap;html=1;backgroundOutline=1;darkOpacity=0.05;rounded=0;strokeColor=#82b366;align=left;verticalAlign=middle;fontFamily=Helvetica;fontSize=12;fillColor=#d5e8d4;size=16;" vertex="1" parent="VnlslrCMdlGvhcKEJv3W-3">
          <mxGeometry x="50" y="1070" width="284.5" height="70" as="geometry" />
        </mxCell>
        <mxCell id="VnlslrCMdlGvhcKEJv3W-4" value="定时任务" style="swimlane;startSize=20;html=1;" vertex="1" parent="VnlslrCMdlGvhcKEJv3W-1">
          <mxGeometry x="840" y="20" width="513" height="1370" as="geometry" />
        </mxCell>
        <mxCell id="VnlslrCMdlGvhcKEJv3W-12" style="edgeStyle=orthogonalEdgeStyle;rounded=0;orthogonalLoop=1;jettySize=auto;html=1;exitX=1;exitY=0.5;exitDx=0;exitDy=0;entryX=0.5;entryY=0;entryDx=0;entryDy=0;" edge="1" parent="VnlslrCMdlGvhcKEJv3W-1" source="VnlslrCMdlGvhcKEJv3W-5" target="VnlslrCMdlGvhcKEJv3W-8">
          <mxGeometry relative="1" as="geometry" />
        </mxCell>
      </root>
    </mxGraphModel>
  </diagram>
</mxfile>
